<svg width="76" height="76" fill="none" xmlns="http://www.w3.org/2000/svg"><path fill-rule="evenodd" clip-rule="evenodd" d="M44.234.2c-.337.146-8.132 7.839-22.2 21.911C-1.488 45.64-.152 44.209.099 45.6c.092.514 1.57 2.037 14.888 15.356C28.305 74.274 29.829 75.75 30.343 75.844c1.392.251-.048 1.596 23.557-22.01 18.689-18.689 21.778-21.838 21.923-22.347.122-.427.155-3.573.119-11.199-.05-10.5-.054-10.615-.384-11.692-1.06-3.46-3.238-6.006-6.42-7.506C66.841.006 67.457.055 55.506.012 46.156-.02 44.685.004 44.234.2Zm20.641 9.414c.714.198 1.4.993 1.532 1.773.216 1.28-.88 2.524-2.222 2.523-2.247-.002-2.963-3.055-.965-4.112.719-.38.885-.398 1.655-.184Zm-25.67 12.198c.812.542 1.023 1.138 1.024 2.889v1.52h1.61c1.426 0 1.666.038 2.113.337 1.428.954 1.296 3.074-.237 3.816-.567.275-.916.297-4.66.297-4.512 0-4.732.04-5.46.995-.919 1.204-.47 3.076.894 3.737.588.285.9.31 3.68.31 2.212 0 3.266.06 3.885.222 3.13.815 5.295 3.578 5.289 6.75-.004 1.995-.623 3.468-2.06 4.906-1.317 1.316-2.92 2.05-4.498 2.061l-.556.004v1.52c0 1.151-.063 1.646-.26 2.037-.798 1.587-3.132 1.587-3.93 0-.196-.391-.26-.886-.26-2.037v-1.52h-1.61c-1.426 0-1.666-.038-2.113-.337-1.428-.954-1.296-3.074.238-3.816.567-.275.916-.297 4.66-.297 4.511 0 4.73-.04 5.46-.995.918-1.204.47-3.076-.895-3.737-.588-.284-.899-.31-3.679-.31-2.213 0-3.267-.06-3.886-.222-3.13-.815-5.295-3.578-5.289-6.75.004-1.995.623-3.468 2.06-4.906 1.317-1.316 2.92-2.05 4.498-2.061l.556-.004v-1.52c0-1.151.064-1.646.26-2.037.372-.74 1.114-1.189 1.965-1.189.479 0 .856.106 1.202.337Z" fill="#0087EE"/></svg>