<svg width="77" height="76" fill="none" xmlns="http://www.w3.org/2000/svg"><path fill-rule="evenodd" clip-rule="evenodd" d="M33.816 2.767c-2.363 1.555-4.406 2.826-4.54 2.826-.434 0-8.102-.434-9.134-.517l-1.002-.08L16.831 9.6 14.523 14.2l-4.579 2.34c-2.518 1.287-4.608 2.366-4.645 2.398-.036.033.057 2.355.207 5.161.227 4.227.24 5.164.08 5.465-.108.2-1.342 2.106-2.744 4.234a1086.243 1086.243 0 0 0-2.652 4.04c-.06.095 1.129 2.035 2.722 4.447 2.75 4.161 2.826 4.299 2.824 5.04-.002.42-.101 2.403-.221 4.409-.12 2.005-.22 4.031-.221 4.502l-.002.855 4.428 2.216c2.435 1.219 4.536 2.34 4.669 2.494.132.152 1.26 2.27 2.505 4.705 1.929 3.774 2.311 4.428 2.587 4.422.177-.003 2.433-.129 5.011-.28 3.783-.22 4.775-.237 5.136-.089.245.101 2.24 1.366 4.434 2.81 2.193 1.444 4.048 2.626 4.122 2.626.075 0 1.998-1.23 4.274-2.732 2.276-1.502 4.274-2.765 4.442-2.806.167-.04 2.41.047 4.986.196 2.575.148 4.832.272 5.014.275.29.006.638-.602 2.646-4.604l2.313-4.611 4.61-2.313 4.612-2.313-.003-.556c-.001-.305-.1-2.196-.22-4.202s-.22-4.123-.222-4.706l-.002-1.06 2.83-4.284c2.626-3.974 2.816-4.307 2.625-4.597-4.1-6.217-5.145-7.816-5.302-8.113-.154-.293-.14-1.305.083-5.497.17-3.205.218-5.157.13-5.188-.079-.028-2.152-1.077-4.608-2.331l-4.465-2.28L59.62 9.72c-1.27-2.504-2.34-4.584-2.382-4.623-.04-.038-2.218.054-4.837.207-2.62.152-4.94.28-5.155.282-.263.004-1.763-.896-4.599-2.76C40.333 1.304 38.366.032 38.276 0c-.09-.033-2.098 1.212-4.46 2.766Zm8.166 10.062c10.079 1.496 18.396 9.025 20.899 18.919.995 3.933.998 8.502.009 12.429-2.285 9.07-9.419 16.22-18.452 18.491-2.27.571-3.637.73-6.252.73-2.615 0-3.982-.159-6.251-.73-11.275-2.835-19.182-13-19.198-24.682-.01-6.776 2.594-13.073 7.412-17.926 5.75-5.792 13.728-8.434 21.833-7.231Zm-6.4 2.612c-3.804.427-7.936 2.08-11.09 4.433-1.793 1.339-4.183 3.952-5.535 6.05-1.242 1.93-2.524 5.142-3.024 7.577-.674 3.286-.528 7.356.379 10.589 1.053 3.753 3.031 7.1 5.878 9.947 7.839 7.84 20.082 8.85 29.198 2.413 2.455-1.735 5.165-4.773 6.694-7.505 3.544-6.333 3.706-14.486.418-21.032-.806-1.606-1.173-2.194-2.318-3.714-.962-1.278-3.099-3.426-4.302-4.325-4.653-3.473-10.555-5.079-16.299-4.433Zm14.02 15.186c.338.317.452 1.002.255 1.516-.049.126-2.841 2.828-6.206 6.003-8.747 8.256-8.035 7.635-8.758 7.635-.698 0-.422.249-5.543-5.011-2.794-2.87-2.923-3.028-2.923-3.588 0-.833.525-1.374 1.333-1.374.588 0 .68.08 3.914 3.355l3.312 3.355 6.251-5.904c3.439-3.247 6.453-6.032 6.698-6.189.537-.342 1.17-.265 1.668.202Z" fill="#0087EE"/></svg>