<svg width="77" height="53" fill="none" xmlns="http://www.w3.org/2000/svg"><path fill-rule="evenodd" clip-rule="evenodd" d="M44.288.82c0 .544-.625 4.947-.712 5.027-.057.051-.37.177-.697.279-.326.102-1.106.418-1.733.702l-1.14.516-2.012-1.574c-1.106-.866-2.061-1.574-2.124-1.574-.062 0-1.96 1.852-4.217 4.117l-4.103 4.116 1.408 1.78c2.067 2.615 1.922 2.276 1.414 3.288a19.872 19.872 0 0 0-.765 1.778c-.382 1.055-.119.95-3.306 1.323l-2.188.256v11.782l2.188.256c3.187.373 2.924.268 3.306 1.323.181.502.526 1.302.765 1.778.508 1.012.653.673-1.414 3.288l-1.408 1.78 4.103 4.117c2.257 2.264 4.155 4.116 4.217 4.116.063 0 1.018-.708 2.124-1.574l2.011-1.574 1.14.517c.628.284 1.408.6 1.734.702.327.102.64.227.697.278.087.08.712 4.483.712 5.028 0 .148 1.23.18 5.896.148l5.896-.038.305-2.48c.168-1.364.348-2.522.4-2.574.052-.052.817-.391 1.699-.753.882-.362 1.676-.692 1.764-.733.088-.04 1.08.64 2.203 1.512l2.043 1.585 4.147-4.147 4.147-4.147L71.204 39l-1.586-2.044.521-1.212c.287-.666.612-1.47.724-1.785.111-.316.336-.622.5-.68.163-.06 1.349-.23 2.634-.377l2.337-.27V20.857l-2.337-.269c-1.285-.148-2.47-.317-2.634-.376-.164-.059-.389-.365-.5-.68a39.742 39.742 0 0 0-.724-1.786l-.52-1.212 1.585-2.043 1.585-2.043-4.147-4.148-4.147-4.147-2.043 1.586c-1.124.872-2.115 1.552-2.203 1.51-.088-.04-.882-.37-1.764-.732s-1.647-.7-1.7-.753c-.051-.052-.231-1.21-.4-2.574L56.08.71 50.184.672c-4.666-.03-5.895 0-5.896.148ZM5.602 13.356l.041 2.188 2.189.04 2.188.042v-4.459H5.56l.041 2.189Zm9.017.037v2.225h8.456V11.168h-8.456v2.226Zm39.238 1.992c3.823 1.284 6.564 4.127 7.812 8.1.298.95.348 1.417.348 3.26 0 1.842-.05 2.31-.348 3.258-1.678 5.344-6.047 8.605-11.534 8.608-2.069.002-3.49-.337-5.401-1.288-1.203-.597-1.63-.92-2.91-2.192-1.355-1.347-1.573-1.643-2.25-3.048-.992-2.06-1.264-3.207-1.269-5.339-.004-2.123.264-3.251 1.269-5.339.677-1.405.895-1.7 2.25-3.048 1.28-1.272 1.708-1.595 2.91-2.193 2.173-1.08 3.204-1.3 5.785-1.233 1.848.048 2.319.112 3.338.454Zm-5.696 4.177c-2.718.73-4.936 3.255-5.365 6.107-.542 3.604 1.72 7.149 5.247 8.22.843.256 1.289.298 2.547.242 1.373-.06 1.638-.121 2.666-.61 3.92-1.861 5.493-6.39 3.55-10.224-.84-1.66-2.855-3.27-4.71-3.764-.979-.261-2.911-.247-3.935.029ZM.377 22.294v2.225H16.695V20.069H.377v2.226Zm0 8.9v2.226H16.695V28.97H.377v2.226Zm5.291 6.775c-.054.055-.099 1.056-.099 2.226v2.126H10.02V37.871H7.893c-1.17 0-2.17.045-2.225.1Zm8.95 2.127v2.225h8.457V37.871h-8.456v2.226Z" fill="#0087EE"/></svg>