<svg width="52" height="52" viewBox="0 0 52 52" fill="none" xmlns="http://www.w3.org/2000/svg">
<path fill-rule="evenodd" clip-rule="evenodd" d="M0.890625 24.582H51.3041V48.0114C51.3041 48.0114 49.9517 51.1534 48.4554 51.1534C46.9591 51.1534 11.9656 51.1534 11.9656 51.1534H3.35697C3.35697 51.1534 0.890625 49.5349 0.890625 48.0114C0.890625 46.488 0.890625 24.582 0.890625 24.582Z" fill="#5195F5"/>
<rect x="6.09375" y="32.9062" width="7.51562" height="4.97653" fill="#E7F0FD"/>
<rect x="18.6875" y="32.9062" width="7.51562" height="4.97653" fill="#E7F0FD"/>
<rect x="31.2812" y="35.6484" width="14.3203" height="15.539" fill="#E7F0FD"/>
<rect x="1.42188" y="15.0312" width="17.9766" height="9.54682" fill="#C3DAFB"/>
<path fill-rule="evenodd" clip-rule="evenodd" d="M19.8379 7.66312V24.242L35.2799 24.5772V19.4123L23.5584 7.26953L19.8379 7.66312Z" fill="#C3DAFB"/>
<path fill-rule="evenodd" clip-rule="evenodd" d="M35.6816 7.66312V24.242L51.1236 24.5772V19.4123L39.4021 7.26953L35.6816 7.66312Z" fill="#C3DAFB"/>
<path fill-rule="evenodd" clip-rule="evenodd" d="M4.33001 13.6484V11.5075L1.42179 8.47878L0.890625 4.92682L2.15174 2.55426L4.33001 1.05859H6.80575L9.26952 1.86511L10.4101 3.74218L10.9328 5.64329L11.3937 6.87427L14.1184 8.18065L16.0662 10.4669L16.7859 12.6794V14.4293H4.33001V13.6484Z" fill="#C3DAFB"/>
<path fill-rule="evenodd" clip-rule="evenodd" d="M49.9961 16.9037L43.4564 10.364C43.1589 10.0665 42.6766 10.0665 42.3792 10.364C42.0817 10.6615 42.0817 11.1438 42.3792 11.4412L48.9189 17.9808C49.9235 18.9854 50.4766 20.3209 50.4766 21.7415V23.8666H36.2771V9.31191C36.2771 8.50124 36.8019 7.99505 37.2929 7.79163C37.784 7.5883 38.513 7.5751 39.0862 8.14831L39.8015 8.86371C40.099 9.16119 40.5813 9.16119 40.8787 8.86371C41.1762 8.56624 41.1762 8.08392 40.8787 7.78655L40.1634 7.07125C39.2399 6.14774 37.9164 5.88439 36.7099 6.38428C35.5032 6.88407 34.7536 8.00592 34.7536 9.31201V17.4377C34.6035 17.2529 34.4437 17.0745 34.2731 16.9039L24.4405 7.07135C23.5169 6.14785 22.1936 5.8845 20.987 6.38438C19.7803 6.88417 19.0307 8.00602 19.0307 9.31211V14.7601C18.6064 14.3875 18.1114 14.0938 17.5684 13.9023C17.5816 13.7277 17.5896 13.5534 17.5896 13.3807C17.5896 11.7766 17.0348 10.2078 16.0272 8.96324C15.0347 7.73739 13.645 6.87229 12.1144 6.52738C11.9339 6.48676 11.8032 6.32355 11.8104 6.14795C11.8136 6.06832 11.8153 5.98839 11.8153 5.90796C11.8153 4.27647 11.1309 2.70195 9.93759 1.58833C8.72767 0.458958 7.14756 -0.100039 5.48945 0.0147258C2.59624 0.2146 0.244156 2.54494 0.0184844 5.43519C-0.175703 7.92132 1.21834 10.2769 3.48735 11.2969C3.67311 11.3804 3.77183 11.5694 3.72745 11.7565C3.57388 12.4049 3.51477 13.0718 3.5488 13.744C1.52466 14.1687 0 15.9674 0 18.1158V47.396C0 49.9346 2.06527 52 4.60393 52H8.13485C8.55552 52 8.89657 51.659 8.89657 51.2383C8.89657 50.8176 8.55552 50.4766 8.13485 50.4766H4.60403C2.9054 50.4766 1.52354 49.0946 1.52354 47.396V44.0267H30.2221V50.4765H11.7952C11.3745 50.4765 11.0334 50.8175 11.0334 51.2382C11.0334 51.6589 11.3745 51.9999 11.7952 51.9999H47.3961C49.9347 51.9999 52 49.9346 52 47.3959V21.7416C52 19.9141 51.2884 18.1959 49.9961 16.9037ZM42.5201 31.3867H40.9082C40.4875 31.3867 40.1465 31.0457 40.1465 30.625C40.1465 30.2043 40.4875 29.8633 40.9082 29.8633H42.5201C42.9408 29.8633 43.2818 30.2043 43.2818 30.625C43.2818 31.0457 42.9408 31.3867 42.5201 31.3867ZM6.89648 46.4883H8.50838C8.92905 46.4883 9.2701 46.8293 9.2701 47.25C9.2701 47.6707 8.92905 48.0117 8.50838 48.0117H6.89648C6.47581 48.0117 6.13477 47.6707 6.13477 47.25C6.13477 46.8293 6.47581 46.4883 6.89648 46.4883ZM7.7434 38.6935H12.2352C13.4356 38.6935 14.4121 37.7169 14.4121 36.5165V34.0637C14.4121 32.8633 13.4355 31.8867 12.2352 31.8867H7.7434C6.54303 31.8867 5.56641 32.8633 5.56641 34.0637V36.5165C5.56641 37.7169 6.54303 38.6935 7.7434 38.6935ZM7.7434 33.4102C7.38305 33.4102 7.08984 33.7034 7.08984 34.0637V36.5165C7.08984 36.8769 7.38305 37.1701 7.7434 37.1701H12.2352C12.5954 37.1701 12.8887 36.8769 12.8887 36.5165V34.0637C12.8887 33.7034 12.5955 33.4102 12.2352 33.4102H7.7434ZM21.5706 7.79175C21.0796 7.99518 20.5548 8.50137 20.5548 9.31203H20.5547V23.8668H34.7541V21.7416C34.7541 20.321 34.201 18.9855 33.1965 17.981L23.3639 8.14844C22.7907 7.57522 22.0616 7.58843 21.5706 7.79175ZM1.53679 5.55365C1.70417 3.41059 3.4484 1.68262 5.59401 1.53434C6.82647 1.44933 7.99982 1.8638 8.89784 2.70189C9.79657 3.54059 10.2915 4.6792 10.2915 5.90779C10.2915 5.96741 10.2903 6.02672 10.2878 6.08573C10.2506 6.99958 10.8778 7.81025 11.7791 8.01338C14.263 8.57308 16.0658 10.8303 16.0658 13.3805C16.0658 13.4693 16.063 13.5589 16.0584 13.6485H5.06893C5.04425 13.1265 5.09057 12.6095 5.20939 12.1076C5.42115 11.214 4.95945 10.2887 4.1115 9.90751C2.42729 9.15026 1.39257 7.40065 1.53679 5.55365ZM4.46723 15.1719C2.84395 15.1719 1.52344 16.4925 1.52344 18.1156V18.7078H19.0308V18.1156C19.0308 16.4924 17.7103 15.1719 16.0871 15.1719H4.46723ZM1.52344 20.2305H19.0308V23.8659H1.52344V20.2305ZM31.7461 50.4777H37.5671V36.0547H33.2302C32.4119 36.0547 31.7461 36.7204 31.7461 37.5388V50.4777ZM44.9109 50.4777H39.0898V36.0547H43.4268C44.2452 36.0547 44.9109 36.7205 44.9109 37.5388V50.4777ZM47.3951 50.4771C49.0938 50.4771 50.4757 49.0952 50.4757 47.3966V44.0273H46.4336V50.4771H47.3951ZM50.4766 42.5037H46.4345V37.538C46.4345 35.8796 45.0852 34.5305 43.4269 34.5305H33.2296C31.5712 34.5305 30.2221 35.8797 30.2221 37.538V42.5037H1.52344V25.3906H50.4766V42.5037ZM35.3724 44.0273H34.5117C34.091 44.0273 33.75 43.6863 33.75 43.2656C33.75 42.845 34.091 42.5039 34.5117 42.5039H35.3724C35.793 42.5039 36.1341 42.845 36.1341 43.2656C36.1341 43.6863 35.793 44.0273 35.3724 44.0273ZM17.8496 28.7851H19.4615C19.8822 28.7851 20.2232 28.4441 20.2232 28.0234C20.2232 27.6028 19.8822 27.2617 19.4615 27.2617H17.8496C17.4289 27.2617 17.0879 27.6028 17.0879 28.0234C17.0879 28.4441 17.4289 28.7851 17.8496 28.7851ZM17.8945 36.5165V34.0637C17.8945 32.8633 18.8711 31.8867 20.0714 31.8867H24.5632C25.7636 31.8867 26.7402 32.8633 26.7402 34.0637V36.5165C26.7402 37.7169 25.7636 38.6935 24.5632 38.6935H20.0714C18.8712 38.6935 17.8945 37.7169 17.8945 36.5165ZM25.2167 34.0637V36.5165C25.2167 36.8769 24.9235 37.1701 24.5631 37.1701H20.0714C19.7111 37.1701 19.418 36.8769 19.418 36.5165V34.0637C19.418 33.7034 19.7112 33.4102 20.0714 33.4102H24.5632C24.9236 33.4102 25.2167 33.7034 25.2167 34.0637ZM41.2852 42.5039H42.1457C42.5665 42.5039 42.9074 42.845 42.9074 43.2656C42.9074 43.6863 42.5664 44.0273 42.1457 44.0273H41.2852C40.8645 44.0273 40.5234 43.6863 40.5234 43.2656C40.5234 42.845 40.8645 42.5039 41.2852 42.5039Z" fill="#22445F"/>
</svg>
