<svg width="65" height="42" viewBox="0 0 65 42" fill="none" xmlns="http://www.w3.org/2000/svg">
<rect x="6.39258" y="11.8477" width="33.0328" height="29.0769" fill="#5195F5"/>
<rect x="39.4258" y="11.8477" width="19.1803" height="29.0769" fill="#E7F0FD"/>
<path fill-rule="evenodd" clip-rule="evenodd" d="M46.0255 1.07812H63.9348L58.3716 10.7704H40.4922L46.0255 1.07812Z" fill="#C3DAFB"/>
<path fill-rule="evenodd" clip-rule="evenodd" d="M6.46712 10.7692H39.4271L32.5815 0L1.06641 0.383532L6.46712 10.7692Z" fill="#C3DAFB"/>
<rect x="10.6562" y="29.0781" width="7.45902" height="6.46154" fill="#E7F0FD"/>
<path fill-rule="evenodd" clip-rule="evenodd" d="M11.9941 27.9766H17.5399C18.6609 27.9766 19.5731 28.8934 19.5732 30.0203V34.0113C19.5732 35.1381 18.6611 36.0549 17.5401 36.0549H11.9941C10.8731 36.0549 9.96094 35.1381 9.96094 34.0113V30.0203C9.96094 28.8935 10.8731 27.9766 11.9941 27.9766ZM17.54 34.1407C17.6111 34.1407 17.669 34.0827 17.6692 34.0112V30.0203C17.6692 29.9488 17.6113 29.8906 17.5402 29.8906H11.9942C11.9231 29.8906 11.8652 29.9488 11.8652 30.0203V34.0112C11.8652 34.0825 11.9231 34.1407 11.9942 34.1407H17.54Z" fill="#22445F"/>
<path d="M27.3169 32.7578H22.7899C22.2639 32.7578 21.8379 33.1863 21.8379 33.7148C21.8379 34.2433 22.2641 34.6718 22.7899 34.6718H27.3169C27.8429 34.6718 28.269 34.2433 28.269 33.7148C28.269 33.1863 27.8427 32.7578 27.3169 32.7578Z" fill="#22445F"/>
<path d="M21.8379 30.3203C21.8379 30.8489 22.2641 31.2773 22.79 31.2773H29.6531C30.1791 31.2773 30.6052 30.8487 30.6052 30.3203C30.6052 29.7918 30.179 29.3633 29.6531 29.3633H22.79C22.2641 29.3632 21.8379 29.7917 21.8379 30.3203Z" fill="#22445F"/>
<path d="M52.0734 33.8038L50.9156 34.9676C50.5438 35.3414 50.5438 35.9473 50.9156 36.321C51.1016 36.5078 51.3453 36.6014 51.589 36.6014C51.8326 36.6014 52.0763 36.508 52.2623 36.321L53.4201 35.1571C53.792 34.7834 53.792 34.1774 53.4201 33.8038C53.0482 33.43 52.4454 33.43 52.0734 33.8038Z" fill="#22445F"/>
<path d="M54.4575 28.378C54.0856 28.0043 53.4828 28.0041 53.111 28.378L51.0329 30.467C50.6609 30.8408 50.6609 31.4466 51.0328 31.8204C51.2188 32.0073 51.4624 32.1007 51.7061 32.1007C51.9498 32.1007 52.1935 32.0073 52.3794 31.8204L54.4576 29.7314C54.8293 29.3576 54.8293 28.7518 54.4575 28.378Z" fill="#22445F"/>
<path fill-rule="evenodd" clip-rule="evenodd" d="M58.7885 33.3335C59.3145 33.3335 59.7406 32.905 59.7406 32.3764V11.4612L64.6543 3.49118C65.0953 2.77577 65.1155 1.90977 64.7083 1.17445C64.301 0.439126 63.5582 0.000255231 62.7209 0.000255231H47.3908C45.9853 0.000255231 44.704 0.717328 43.9634 1.91832L39.3681 9.37185L34.7728 1.91819C34.0321 0.717201 32.7509 0.000127616 31.3454 0.000127616H8.19357C7.66773 0.000127616 7.24155 0.428661 7.24155 0.957118C7.24155 1.4857 7.66773 1.91411 8.19357 1.91411H11.7823L16.9102 10.2312H6.74135L1.9641 2.48264C1.86431 2.32069 1.91573 2.17674 1.95534 2.10528C1.99482 2.03381 2.08966 1.91398 2.27907 1.91398H3.68813C4.21409 1.91398 4.64015 1.48545 4.64015 0.95699C4.64015 0.428406 4.21397 0 3.68813 0H2.27907C1.44181 0 0.69901 0.438998 0.291743 1.17419C-0.115523 1.90939 -0.0953376 2.77551 0.345698 3.49106L5.25943 11.4608V38.6655C5.25943 40.5042 6.74758 42 8.57659 42H39.3684H56.4237C58.2527 42 59.7408 40.5042 59.7408 38.6655V36.9111C59.7408 36.3825 59.3146 35.9541 58.7888 35.9541C58.263 35.9541 57.8368 36.3826 57.8368 36.9111V38.6655C57.8368 39.4488 57.2029 40.0859 56.4238 40.0859H40.3201V12.1457H57.8364V16.2655H50.1129C49.0175 16.2655 48.1261 17.1614 48.1261 18.2627V21.3719C48.1261 22.4731 49.0175 23.3691 50.1129 23.3691H57.8364V32.3765C57.8364 32.905 58.2626 33.3335 58.7885 33.3335ZM31.3454 1.91406C32.0874 1.91406 32.7634 2.29257 33.1543 2.92631L37.6579 10.2312H27.4892L22.3613 1.91406H31.3454ZM20.122 1.91406H14.0234L19.1513 10.2312H25.2499L20.122 1.91406ZM26.0068 12.1445V20.2426L25.475 19.9953C25.0931 19.8179 24.6554 19.8179 24.273 19.9955L22.7895 20.6855L21.3059 19.9953C20.9238 19.8177 20.4857 19.8177 20.1037 19.9955L19.5723 20.2426V12.1445H26.0068ZM8.57705 40.0854H38.4165V12.1445H27.9118V20.986C27.9118 21.4794 27.6649 21.9328 27.2511 22.1985C26.8376 22.4643 26.3245 22.4993 25.879 22.292L24.8749 21.825L23.3915 22.5151C23.2006 22.6039 22.9955 22.6485 22.7905 22.6485C22.5853 22.6485 22.3802 22.6039 22.189 22.515L20.7057 21.8251L19.7017 22.2922C19.256 22.4993 18.7431 22.4644 18.3295 22.1986C17.9159 21.9329 17.6689 21.4797 17.6689 20.9863V12.1448H7.16406V38.665C7.16406 39.4482 7.79781 40.0854 8.57705 40.0854ZM41.0781 10.2312L45.5818 2.92631C45.9727 2.29244 46.6487 1.91406 47.3906 1.91406H62.7208C62.9102 1.91406 63.0049 2.03389 63.0445 2.10536C63.0838 2.1767 63.1354 2.32077 63.0356 2.48259L58.2583 10.2313H41.0781V10.2312ZM50.0312 21.372C50.0312 21.4178 50.0683 21.4551 50.1139 21.4551H57.8374V18.1797H50.1139C50.0683 18.1797 50.0312 18.217 50.0312 18.2628V21.372Z" fill="#22445F"/>
</svg>
