<svg width="56" height="50" viewBox="0 0 56 50" fill="none" xmlns="http://www.w3.org/2000/svg">
<rect width="56" height="39.1304" rx="9" fill="#5195F5"/>
<path fill-rule="evenodd" clip-rule="evenodd" d="M6.46094 6.35389V30.4336H30.1532V5.43359H7.46909L6.46094 6.35389Z" fill="#E7F0FD"/>
<path fill-rule="evenodd" clip-rule="evenodd" d="M30.1543 5.43359V30.4336H50.6158V6.35389L48.0497 5.43359H30.1543Z" fill="#E6F0FD"/>
<path fill-rule="evenodd" clip-rule="evenodd" d="M20.4382 38.043H34.4887L35.2033 44.1012L38.4962 45.7045L38.7697 48.6553L16.7729 48.9125L16.1543 47.0126L17.8295 44.7545L20.0157 44.1012L20.4382 38.043Z" fill="#5195F5"/>
<path fill-rule="evenodd" clip-rule="evenodd" d="M33.5723 13.6023L40.4442 8.90625L47.3643 13.6023V21.8688L40.4442 25.5034L33.5723 21.8688V13.6023Z" fill="#E7F0FD"/>
<path fill-rule="evenodd" clip-rule="evenodd" d="M48.6963 0H47.5234C47.0704 0 46.7031 0.36693 46.7031 0.819527C46.7031 1.27212 47.0704 1.63905 47.5234 1.63905H48.6963C51.8189 1.63905 54.3595 4.17707 54.3595 7.29685V29.3731H51.5656V8.11375C51.5656 6.08275 49.9116 4.43036 47.8787 4.43036H8.12144C6.08848 4.43036 4.43451 6.08275 4.43451 8.11375V29.3731H1.64063V7.29685C1.64063 4.17718 4.1812 1.63905 7.30386 1.63905H43.6578C44.1108 1.63905 44.4781 1.27212 44.4781 0.819527C44.4781 0.36693 44.1108 0 43.6578 0H7.30386C3.27644 0 0 3.27341 0 7.29685V32.005C0 35.5527 2.53444 38.5747 6.02646 39.1904C6.0747 39.199 6.12261 39.2031 6.17007 39.2031C6.56054 39.2031 6.90672 38.9234 6.97694 38.5259C7.05569 38.0801 6.75786 37.655 6.31172 37.5764C3.60512 37.0991 1.64063 34.756 1.64063 32.005V31.0121H54.3595V32.005C54.3595 35.1247 51.8189 37.6628 48.6963 37.6628H10.0205C9.56749 37.6628 9.20021 38.0298 9.20021 38.4824C9.20021 38.935 9.56749 39.3019 10.0205 39.3019H19.8326L19.395 44.0484H19.038C17.493 44.0484 16.1092 45.0825 15.6728 46.5633L15.4833 47.2067C15.2873 47.8717 15.4134 48.5715 15.829 49.1266C16.2446 49.6817 16.881 50 17.5748 50H38.4252C39.119 50 39.7554 49.6817 40.171 49.1266C40.5866 48.5715 40.7127 47.8717 40.5167 47.2067L40.3272 46.5632C39.8909 45.0825 38.5071 44.0484 36.962 44.0484H36.605L36.1674 39.3019H48.6961C52.7234 39.3019 56 36.0285 56 32.005V7.29685C56.0001 3.27341 52.7236 0 48.6963 0ZM12.1758 11.496C12.6288 11.496 12.9961 11.129 12.9961 10.6764V9.72578C12.9961 9.27318 12.6288 8.90625 12.1758 8.90625C11.7228 8.90625 11.3555 9.27318 11.3555 9.72578V10.6764C11.3555 11.1291 11.7228 11.496 12.1758 11.496ZM23.6406 11.496C24.0937 11.496 24.4609 11.129 24.4609 10.6764V9.72578C24.4609 9.27318 24.0937 8.90625 23.6406 8.90625C23.1876 8.90625 22.8203 9.27318 22.8203 9.72578V10.6764C22.8203 11.1291 23.1875 11.496 23.6406 11.496ZM24.927 17.4164H10.8887C10.4355 17.4164 10.0684 17.0495 10.0684 16.5969C10.0684 16.1443 10.4356 15.7773 10.8887 15.7773H24.927C25.38 15.7773 25.7473 16.1443 25.7473 16.5969C25.7473 17.0495 25.38 17.4164 24.927 17.4164ZM17.9077 12.2253C18.7241 12.2253 19.5003 11.8722 20.0376 11.2563C20.3352 10.9152 20.2996 10.3974 19.958 10.1001C19.6166 9.8028 19.0984 9.83831 18.8007 10.1796C18.5753 10.438 18.2498 10.5863 17.9078 10.5863C17.5659 10.5863 17.2404 10.438 17.0149 10.1796C16.7173 9.83831 16.199 9.8028 15.8576 10.1001C15.516 10.3974 15.4804 10.9152 15.778 11.2563C16.3151 11.8722 17.0914 12.2253 17.9077 12.2253ZM24.927 21.8695H10.8887C10.4355 21.8695 10.0684 21.5026 10.0684 21.05C10.0684 20.5974 10.4356 20.2305 10.8887 20.2305H24.927C25.38 20.2305 25.7473 20.5974 25.7473 21.05C25.7473 21.5026 25.38 21.8695 24.927 21.8695ZM6.07422 29.3739H29.3238V6.07031H8.12052C6.9922 6.07031 6.07422 6.98742 6.07422 8.11465V29.3739ZM49.9244 29.3739H30.9648V6.07031H47.8781C49.0064 6.07031 49.9244 6.98742 49.9244 8.11465V29.3739ZM34.5205 39.3008H21.4806L21.043 44.0473H34.9581L34.5205 39.3008ZM36.9624 45.6875C37.7848 45.6875 38.5213 46.238 38.7537 47.0262L38.9432 47.6697C39.0096 47.8951 38.9182 48.0641 38.8577 48.1449C38.7972 48.2256 38.6607 48.361 38.4255 48.361H17.5752C17.3402 48.361 17.2036 48.2256 17.1431 48.1449C17.0403 48.0075 17.009 47.8343 17.0575 47.6696L17.2471 47.0262C17.4794 46.238 18.2159 45.6875 19.0383 45.6875H20.1434H20.1446H20.1456H35.8552H35.8563H35.8575H36.9624ZM27.9995 32.7656C28.8686 32.7656 29.5732 33.4694 29.5732 34.3378C29.5732 35.2061 28.8686 35.91 27.9995 35.91C27.1304 35.91 26.4258 35.2061 26.4258 34.3378C26.4258 33.4695 27.1304 32.7656 27.9995 32.7656ZM41.9147 9.18112C41.0086 8.65848 39.8824 8.65827 38.9763 9.18112L33.3945 12.4007C32.9876 12.6353 32.7371 13.0442 32.7056 13.5065C32.7017 13.5385 32.6992 13.5708 32.6992 13.6038V21.2662C32.6992 21.7684 32.9591 22.2182 33.3945 22.4693L38.9763 25.6888C39.4085 25.9382 39.8909 26.0671 40.3754 26.0786C40.3872 26.0796 40.399 26.0805 40.4109 26.0811C40.4223 26.0817 40.4338 26.0821 40.4454 26.0821C40.4691 26.0821 40.4924 26.0805 40.5156 26.0785C41.0001 26.067 41.4824 25.938 41.9146 25.6887L47.4963 22.4693C47.9317 22.2182 48.1916 21.7683 48.1916 21.2661V13.6038C48.1916 13.5708 48.189 13.5385 48.1852 13.5065C48.1539 13.0442 47.9034 12.6353 47.4965 12.4007L41.9147 9.18112ZM34.3398 21.1211L39.6252 24.1698V18.3004C39.4011 18.2355 39.1828 18.1449 38.9763 18.0258L34.3398 15.3516V21.1211ZM39.7965 16.6053L34.5898 13.6021L39.7965 10.5989C40.197 10.3681 40.6943 10.3681 41.0944 10.5989L46.3011 13.6021L41.0944 16.6053C40.694 16.8363 40.1967 16.8363 39.7965 16.6053ZM41.2656 24.1698L46.5509 21.1211H46.551V15.3516L41.9145 18.0258C41.708 18.1449 41.4897 18.2355 41.2656 18.3003V24.1698ZM10.8887 26.323H18.6719C19.0135 27.315 19.9563 28.0303 21.0639 28.0303C22.1714 28.0303 23.1142 27.3151 23.4558 26.323H24.927C25.38 26.323 25.7473 25.956 25.7473 25.5034C25.7473 25.0508 25.38 24.6839 24.927 24.6839H23.4558C23.1142 23.6917 22.1714 22.9766 21.0639 22.9766C19.9563 22.9766 19.0134 23.6917 18.6719 24.6839H10.8887C10.4356 24.6839 10.0684 25.0508 10.0684 25.5034C10.0684 25.956 10.4355 26.323 10.8887 26.323ZM21.953 25.505C21.953 25.0155 21.5545 24.6172 21.0645 24.6172C20.5745 24.6172 20.1758 25.0155 20.1758 25.505C20.1758 25.9945 20.5745 26.3928 21.0645 26.3928C21.5543 26.3928 21.953 25.9945 21.953 25.505Z" fill="#22445F"/>
</svg>
